<?xml version="1.0" standalone="no"?>
<!DOCTYPE svg PUBLIC "-//W3C//DTD SVG 1.1//EN" "http://www.w3.org/Graphics/SVG/1.1/DTD/svg11.dtd" >
<svg xmlns="http://www.w3.org/2000/svg" xmlns:xlink="http://www.w3.org/1999/xlink" version="1.1">
<metadata>
Created by FontForge 20170731 at Fri Jan  1 02:30:17 1904
 By Aleksey,,,
Generated by Fontographer 4.1
</metadata>
<defs>
<font id="BasicSansSFBold" horiz-adv-x="2474" >
  <font-face 
    font-family="Basic Sans SF"
    font-weight="700"
    font-stretch="normal"
    units-per-em="4096"
    panose-1="2 11 -30 0 0 0 0 0 0 0"
    ascent="3276"
    descent="-820"
    x-height="2212"
    cap-height="2949"
    bbox="-385 -909 4272 3760"
    underline-thickness="76"
    underline-position="-204"
    unicode-range="U+0020-F002"
  />
<missing-glyph horiz-adv-x="3072" 
d="M512 0v2560h2048v-2560h-2048zM2494 66v2428h-1916v-2428h1916z" />
    <glyph glyph-name=".notdef" horiz-adv-x="3072" 
d="M512 0v2560h2048v-2560h-2048zM2494 66v2428h-1916v-2428h1916z" />
    <glyph glyph-name=".null" horiz-adv-x="0" 
 />
    <glyph glyph-name="nonmarkingreturn" horiz-adv-x="1188" 
 />
    <glyph glyph-name="space" unicode=" " horiz-adv-x="1188" 
 />
    <glyph glyph-name="exclam" unicode="!" horiz-adv-x="983" 
d="M197 0v602h589v-602h-589zM193 1958v991h598v-991l-132 -1151h-340z" />
    <glyph glyph-name="quotedbl" unicode="&#x22;" horiz-adv-x="1487" 
d="M156 1966l86 983h442l-86 -983h-442zM803 1966l86 983h442l-86 -983h-442z" />
    <glyph glyph-name="numbersign" unicode="#" horiz-adv-x="2392" 
d="M156 877l53 245h471l151 705h-475l54 246h471l180 847h246l-181 -847h394l180 847h246l-181 -847h471l-49 -246h-471l-151 -705h471l-54 -245h-471l-180 -848h-246l181 848h-394l-180 -848h-246l181 848h-471zM926 1122h393l151 705h-397z" />
    <glyph glyph-name="dollar" unicode="$" horiz-adv-x="2609" 
d="M29 987h610q0 -332 283 -479l110 -41l58 -8v782l-140 37l-90 29q-737 233 -737 770q0 131 37 274q94 356 499 557q164 82 312 90l123 8v242h417v-242q435 0 725 -331q234 -267 234 -643h-610l-5 86q-40 290 -299 360l-49 8v-684l45 -12l21 -4l86 -25l139 -32l127 -37
q590 -242 590 -750q0 -127 -41 -303q-66 -283 -324 -475q-241 -184 -540 -209l-107 -8v-254h-418v254l-110 12q-307 33 -553 213q-393 287 -393 815zM1503 446l33 5l49 8q258 41 283 274q4 37 4 70q0 229 -279 315l-65 21l-25 4v-697zM1094 2494h-29l-16 -4l-82 -24
q-168 -82 -197 -217q-8 -41 -8 -66q0 -135 156 -225q36 -29 114 -45l37 -8l25 -9v598z" />
    <glyph glyph-name="percent" unicode="%" horiz-adv-x="3723" 
d="M991 0l1286 2949h455l-1286 -2949h-455zM123 2101q0 434 139 647q172 258 586 258t586 -258q139 -213 139 -647q0 -753 -422 -864q-201 -53 -356 -53q-672 0 -672 917zM586 2101q0 -225 24 -315q58 -213 250 -213q205 0 242 369q8 81 8 217q0 471 -262 471
q-172 0 -230 -193q-32 -110 -32 -336zM2150 848q0 434 140 647q172 258 585 258q414 0 586 -258q139 -213 139 -647q0 -918 -675 -918q-447 0 -623 246q-152 209 -152 672zM2613 848q0 -529 262 -529q263 0 263 484v135q-9 49 -9 70q-37 368 -245 368q-177 0 -238 -192
q-33 -107 -33 -336z" />
    <glyph glyph-name="ampersand" unicode="&#x26;" horiz-adv-x="2740" 
d="M803 1679l-41 41q-262 262 -262 611q0 266 180 450q168 172 438 213q82 12 135 12q418 0 635 -311q119 -168 119 -385q0 -209 -139 -401q-123 -168 -320 -283l-57 -33l422 -544q135 221 135 491h483q0 -205 -94 -467q-86 -242 -213 -426l520 -647h-647l-213 274l-119 -98
q-290 -242 -741 -242q-274 0 -492 123q-233 131 -339 369q-74 164 -74 336q0 262 176 512q164 233 410 356zM1217 1937l53 29q262 139 262 332q0 115 -70 188q-73 70 -188 70q-33 0 -49 -4q-164 -25 -209 -144q-17 -32 -17 -81q0 -132 172 -336zM1085 1303l-90 -54
q-348 -205 -348 -467q0 -127 82 -225t205 -131q61 -16 139 -16q242 0 467 204l45 41z" />
    <glyph glyph-name="quotesingle" unicode="'" horiz-adv-x="840" 
d="M156 1966l86 983h442l-86 -983h-442z" />
    <glyph glyph-name="parenleft" unicode="(" horiz-adv-x="1249" 
d="M758 3314h528l-110 -168q-455 -692 -455 -1680q0 -966 455 -1675l110 -172h-528l-82 115q-574 803 -574 1732q0 664 304 1274q131 266 270 459z" />
    <glyph glyph-name="parenright" unicode=")" horiz-adv-x="1253" 
d="M-37 -381q574 758 574 1847q0 1106 -574 1848h541l86 -123q483 -692 549 -1430q12 -139 12 -307q0 -909 -561 -1712l-86 -123h-541z" />
    <glyph glyph-name="asterisk" unicode="*" horiz-adv-x="1565" 
d="M49 2310l115 316l454 -177v500h332v-491l455 172l111 -320l-467 -156l294 -385l-278 -204l-287 413l-295 -413l-270 200l303 385z" />
    <glyph glyph-name="plus" unicode="+" horiz-adv-x="2470" 
d="M131 1110v553h819v844h570v-844h819v-553h-823v-815h-562v815h-823z" />
    <glyph glyph-name="comma" unicode="," horiz-adv-x="823" 
d="M102 -717v234l50 20q249 103 270 402l4 61h-307v598h602v-516q0 -275 -127 -479q-135 -221 -389 -291z" />
    <glyph glyph-name="hyphen" unicode="-" horiz-adv-x="1450" 
d="M70 991v479h1310v-479h-1310z" />
    <glyph glyph-name="period" unicode="." horiz-adv-x="807" 
d="M102 0v606h603v-606h-603z" />
    <glyph glyph-name="slash" unicode="/" horiz-adv-x="1757" 
d="M16 0l1237 2949h488l-1229 -2949h-496z" />
    <glyph glyph-name="zero" unicode="0" 
d="M123 1479q0 643 229 1040q287 496 885 496q606 0 889 -492q225 -393 225 -1044q0 -643 -229 -1041q-287 -495 -885 -495q-606 0 -889 491q-225 393 -225 1045zM709 1479q0 -389 65 -602q139 -455 455 -455q57 0 119 16q241 66 352 439q65 221 65 602q0 385 -65 602
q-115 381 -320 434q-77 20 -155 20q-312 0 -451 -454q-65 -213 -65 -602z" />
    <glyph glyph-name="one" unicode="1" 
d="M254 2019v394h106q648 0 713 450l12 86h496v-2949h-594v2019h-733z" />
    <glyph glyph-name="two" unicode="2" horiz-adv-x="2478" 
d="M176 0q0 360 225 700q144 213 336 373l111 90l98 74l127 98l94 70l217 176q291 238 291 500q0 160 -94 274q-98 115 -254 148q-41 8 -106 8q-209 0 -328 -135q-123 -140 -123 -353v-28q0 -33 4 -86h-557v90q0 475 328 778q270 250 688 250q459 0 737 -246
q295 -258 295 -708q0 -537 -479 -865l-90 -61l-107 -78l-413 -291q-172 -119 -230 -237l-12 -25l-4 -16h1372v-500h-2126z" />
    <glyph glyph-name="three" unicode="3" 
d="M123 1016h565l-4 -107v-24q0 -209 152 -336q147 -127 376 -127q193 0 344 102q148 103 177 287q8 53 8 90q0 217 -176 344q-156 111 -381 111q-21 0 -58 -4q-36 -4 -57 -4l-90 -17v467l90 -12q29 -4 82 -4q168 0 295 73q147 87 180 238q12 57 12 94q0 185 -143 287
q-127 90 -319 90q-410 0 -435 -471l-4 -82h-549v143q0 431 287 660q262 213 701 213q380 0 634 -139q304 -164 373 -504q17 -78 17 -160q0 -213 -119 -393t-320 -225l82 -17q234 -45 369 -254q123 -188 123 -438v-115q-8 -24 -17 -73q-61 -381 -385 -586
q-286 -184 -692 -184q-459 0 -766 217q-352 245 -352 688v172z" />
    <glyph glyph-name="four" unicode="4" 
d="M78 635v573l1298 1741h590v-1843h430v-471h-430v-635h-573v635h-1315zM557 1085l49 9l49 4l62 4h684l8 991l16 148l-53 -82l-37 -50l-57 -90z" />
    <glyph glyph-name="five" unicode="5" 
d="M86 856h586q0 -213 164 -332q147 -106 368 -106q201 0 352 119q148 114 189 307q12 57 12 139q0 242 -155.5 385t-397.5 143q-139 0 -217 -28q-78 -33 -192 -127l-66 -66h-524l303 1659h1679v-495h-1269l-136 -652q201 201 602 201q439 0 709 -303q262 -287 262 -733
q0 -414 -254 -676q-258 -266 -676 -332q-131 -20 -262 -20q-442 0 -745 233q-332 254 -332 684z" />
    <glyph glyph-name="six" unicode="6" horiz-adv-x="2478" 
d="M2298 2204h-561q0 278 -320 344l-119 12q-577 0 -606 -762l-4 -102q184 315 684 315q152 0 295 -45q328 -102 516 -360q184 -258 184 -602q0 -78 -16 -189q-61 -409 -348 -643q-291 -238 -709 -238q-651 0 -946 549q-229 426 -229 1135q106 1204 921 1360q152 28 291 28
q512 0 787 -352q155 -200 180 -450zM729 946q4 -33 4 -45q21 -196 152 -332q127 -139 319 -163q33 -5 90 -5q418 0 508 463q13 62 13 135q0 238 -144 390q-147 151 -385 151q-217 0 -364.5 -127t-184.5 -344q-8 -49 -8 -123z" />
    <glyph glyph-name="seven" unicode="7" 
d="M147 2441v508h2143v-500q-660 -532 -959 -1544q-135 -459 -135 -905h-647l24 262q50 524 304 1077q233 516 598 947l131 155h-1459z" />
    <glyph glyph-name="eight" unicode="8" 
d="M643 1634q-197 54 -315 226q-123 172 -123 381q0 397 381 630q262 160 651 160h98q45 -8 62 -8q577 -66 794 -467q78 -143 78 -320q0 -208 -119 -376q-122 -172 -319 -226q258 -65 401 -270q144 -205 144 -479q0 -135 -41 -275q-168 -573 -926 -663q-70 -8 -90 -8h-148
q-16 0 -53 4t-53 4q-332 37 -569 192q-271 176 -357 471q-41 140 -41 279q0 266 148 475q143 205 397 270zM758 2179q0 -74 57 -176q94 -168 365 -197h114q181 21 303 123q119 99 119 271q0 196 -147 299q-127 90 -332 90q-336 0 -442 -238q-37 -82 -37 -172zM659 877
q0 -402 484 -463h188q484 61 484 463q0 253 -160 384.5t-418 131.5t-410 -127q-168 -140 -168 -389z" />
    <glyph glyph-name="nine" unicode="9" horiz-adv-x="2478" 
d="M176 737h561q0 -278 320 -344l119 -12q303 0 462 233q144 205 144 521v102q-193 -303 -672 -303h-66q-28 4 -40 4q-402 37 -648 315q-245 279 -245 684q0 99 12 181q61 409 352 651t709 242q1171 0 1171 -1704q0 -500 -213 -852q-241 -402 -700 -492q-144 -29 -279 -29
q-516 0 -798 361q-156 201 -189 442zM659 1970q0 -69 9 -102q32 -213 171.5 -340t352.5 -127q53 0 115 12q209 41 323 197q115 155 115 372q0 402 -365 529q-94 33 -200 33q-205 0 -344 -136q-140 -135 -164 -340z" />
    <glyph glyph-name="colon" unicode=":" horiz-adv-x="987" 
d="M193 0v606h602v-606h-602zM193 1294v602h602v-602h-602z" />
    <glyph glyph-name="semicolon" unicode=";" horiz-adv-x="1008" 
d="M193 -717v234l49 20q250 103 270 402l4 61h-307v598h602v-516q0 -275 -127 -479q-135 -221 -389 -291zM213 1290v606h602v-606h-602z" />
    <glyph glyph-name="less" unicode="&#x3c;" horiz-adv-x="2036" 
d="M156 1475l1724 966v-504l-881 -462l881 -463v-504z" />
    <glyph glyph-name="equal" unicode="=" horiz-adv-x="2470" 
d="M135 717v557h2200v-557h-2200zM135 1511v553h2200v-553h-2200z" />
    <glyph glyph-name="greater" unicode="&#x3e;" horiz-adv-x="2036" 
d="M156 508v504l880 463l-880 462v504l1724 -966z" />
    <glyph glyph-name="question" unicode="?" horiz-adv-x="2265" 
d="M840 0v598h602v-598h-602zM16 1937q0 86 17 181q73 422 360 651q283 225 717 225q455 0 741 -233q316 -254 316 -697q0 -389 -320 -655l-24 -20l-185 -152q-241 -201 -241 -401v-21l-533 -12v86q0 225 90 377q70 114 275 278l160 127q221 176 221 377q0 238 -201 365
q-135 86 -311 86q-480 0 -533 -463q-4 -45 -4 -74v-25h-545z" />
    <glyph glyph-name="at" unicode="@" horiz-adv-x="3228" 
d="M1880 934q-131 -316 -422 -316q-90 0 -196 46q-332 139 -332 733l16 143q25 217 152 442q237 422 590 422q270 0 368 -245l33 208h209l-201 -1200q-12 -73 -12 -143q0 -225 176 -225q20 0 53 8q103 41 221 172q172 192 226 520q24 152 24 246q0 459 -286 749
q-287 287 -742 287q-78 0 -192 -16q-480 -70 -770 -451q-279 -360 -279 -856q0 -729 561 -1114q279 -197 635 -197q590 0 1020 492q8 12 102 127l62 -205l-98 -119q-418 -503 -1110 -503q-594 0 -988 372q-397 369 -458 963q-9 78 -9 196q0 910 754 1340q352 201 762 201
q549 0 909 -349q361 -352 361 -901q0 -139 -29 -286q-127 -648 -569 -832q-99 -41 -197 -41q-131 0 -229.5 74t-114.5 201v57zM1188 1196q0 -356 250 -389q16 -4 28 -4h17q209 0 364 430q54 147 70 287l16 73l21 140q12 82 12 184v49q-12 107 -82 180q-74 70 -180 70
q-361 0 -487 -660q-29 -147 -29 -360z" />
    <glyph glyph-name="A" unicode="A" horiz-adv-x="2634" 
d="M-74 0l1045 2949h688l1048 -2949h-688l-196 643h-1012l-197 -643h-688zM958 1139h713l-328 1114q-28 151 -28 205q0 -33 -29 -205l-4 -25l-25 -78z" />
    <glyph glyph-name="B" unicode="B" horiz-adv-x="2662" 
d="M193 0v2949h1282q774 0 970 -467q58 -135 58 -287q0 -368 -299 -557l-140 -61q238 -57 381 -262q144 -209 144 -463q0 -225 -111 -426q-115 -201 -307 -303q-229 -123 -610 -123h-1368zM811 1810h684q340 0 385 242q8 45 8 74q0 291 -397 291h-680v-607zM811 520h721
q229 0 352 172q74 103 74 226q0 372 -463 372h-684v-770z" />
    <glyph glyph-name="C" unicode="C" horiz-adv-x="2933" 
d="M2839 2003h-635l-13 61q-41 205 -229 320q-172 106 -389 106q-463 0 -668 -368q-143 -258 -143 -631q0 -889 610 -1024q94 -21 184 -21q271 0 455 152q201 164 201 426h647l-25 -160q-65 -438 -450 -696q-348 -238 -811 -238q-754 0 -1155 533q-316 418 -316 1028
q0 594 328 1012q324 413 905 491q123 17 246 17q438 0 754 -201q340 -213 463 -619q20 -69 41 -188z" />
    <glyph glyph-name="D" unicode="D" horiz-adv-x="2818" 
d="M193 0v2949h1183q627 0 991 -385q353 -377 353 -1012q0 -200 -41 -417q-213 -1135 -1327 -1135h-1159zM811 532h532q377 0 562 299q155 250 155 648q0 397 -147 643q-180 299 -553 299h-549v-1889z" />
    <glyph glyph-name="E" unicode="E" horiz-adv-x="2499" 
d="M193 0v2949h2179v-528h-1561v-611h1380v-532h-1380v-746h1585v-532h-2203z" />
    <glyph glyph-name="F" unicode="F" horiz-adv-x="2290" 
d="M193 0v2949h2142v-536h-1524v-627h1245v-533h-1245v-1253h-618z" />
    <glyph glyph-name="G" unicode="G" horiz-adv-x="3076" 
d="M2834 1991h-589q-37 245 -217 376q-185 132 -439 132q-467 0 -684 -373q-151 -258 -151 -635q0 -430 176 -713q209 -336 614 -336q29 0 82 9q49 8 78 8q487 90 582 508l28 127h-762v528h1332v-1622h-439l-69 418q-205 -496 -869 -496h-110q-21 4 -119 17
q-578 77 -889 532q-287 414 -287 1016q0 590 320 1003q336 443 905 521q119 16 254 16q647 0 1012 -463q196 -250 241 -573z" />
    <glyph glyph-name="H" unicode="H" horiz-adv-x="2761" 
d="M193 0v2949h618v-1122h1135v1122h622v-2949h-622v1290h-1135v-1290h-618z" />
    <glyph glyph-name="I" unicode="I" horiz-adv-x="1004" 
d="M193 0v2949h618v-2949h-618z" />
    <glyph glyph-name="J" unicode="J" horiz-adv-x="2167" 
d="M16 889v233h615v-241q0 -426 356 -426q41 0 70 4q299 45 299 422v2068h618v-2060q0 -942 -893 -942h-172q-893 0 -893 942z" />
    <glyph glyph-name="K" unicode="K" horiz-adv-x="2654" 
d="M193 0v2949h618v-1081l-20 -131l77 106l82 94l951 1012h692l-1065 -1180l1257 -1769h-757l-918 1360l-299 -303v-1057h-618z" />
    <glyph glyph-name="L" unicode="L" horiz-adv-x="2081" 
d="M193 0v2949h618v-2412h1286v-537h-1904z" />
    <glyph glyph-name="M" unicode="M" horiz-adv-x="3424" 
d="M193 0v2949h897l561 -2060q24 -86 41 -172q8 -45 16 -230l4 -110l4 110q8 242 53 402l566 2060h897v-2949h-606v1860l32 274l21 197l20 159l-82 -352l-57 -274l-541 -1864h-614l-680 2490l74 -630v-1860h-606z" />
    <glyph glyph-name="N" unicode="N" horiz-adv-x="2888" 
d="M193 0v2949h675l1065 -1745q148 -241 238 -631l-53 345q-41 266 -41 327v1704h618v-2949h-684l-1098 1806q-102 172 -184 463l-45 164l74 -397l53 -254v-1782h-618z" />
    <glyph glyph-name="O" unicode="O" horiz-adv-x="3105" 
d="M102 1475q0 761 463 1183q398 361 987 361q590 0 988 -361q462 -422 462 -1183q0 -762 -462 -1184q-398 -361 -988 -361q-589 0 -987 361q-463 422 -463 1184zM754 1475q0 -107 16 -230q111 -823 782 -823q664 0 783 823q16 115 16 230q0 114 -16 229q-119 823 -783 823
q-671 0 -782 -823q-16 -123 -16 -229z" />
    <glyph glyph-name="P" unicode="P" horiz-adv-x="2470" 
d="M193 0v2949h1208q471 0 753 -242q300 -258 300 -720q0 -471 -295 -713q-275 -225 -754 -225h-594v-1049h-618zM811 1556h586q205 0 323 115q115 115 115 320q0 196 -119 311q-123 115 -319 115h-586v-861z" />
    <glyph glyph-name="Q" unicode="Q" horiz-adv-x="3105" 
d="M2691 422l299 -275l-344 -372l-365 315q-364 -160 -745 -160q-569 0 -954 344q-389 340 -463 906q-21 155 -21 327q0 725 467 1151q393 361 987 361t988 -361q462 -422 462 -1147q0 -602 -217 -942zM2228 836q119 237 119 499q0 1176 -807 1176q-401 0 -610 -332
q-176 -278 -176 -704q0 -439 176 -713q205 -324 622 -324q140 0 238 25l20 8l33 8l-266 250l356 385z" />
    <glyph glyph-name="R" unicode="R" horiz-adv-x="2679" 
d="M193 0v2949h1302q991 0 1032 -737l4 -74v-41q0 -192 -110 -360q-123 -189 -328 -271l-82 -20q316 -41 402 -365q24 -98 32 -245l17 -369q8 -201 20 -250q25 -102 111 -217h-631q-94 123 -107 336l-12 217l-8 102q-20 275 -106 381q-107 131 -369 131h-549v-1167h-618z
M811 1688h672q381 0 434 303q8 45 8 86q0 340 -434 340h-680v-729z" />
    <glyph glyph-name="S" unicode="S" horiz-adv-x="2601" 
d="M29 987h626q-4 -37 -4 -53q0 -82 29 -160q119 -332 590 -332q229 0 389 74q209 94 209 299q0 213 -295 299l-242 70l-393 102q-807 209 -807 774q0 131 37 291q82 352 434 524q291 144 692 144q1020 0 1151 -832q9 -53 9 -78v-81h-607v81q0 209 -180 316q-147 90 -369 90
h-69l-74 -8q-401 -33 -401 -324q0 -196 290 -274l750 -201q709 -188 709 -782q0 -127 -37 -271q-94 -372 -447 -561q-299 -164 -716 -164h-164l-107 17q-463 69 -717 319q-286 279 -286 721z" />
    <glyph glyph-name="T" unicode="T" horiz-adv-x="2327" 
d="M-45 2417v532h2417v-532h-902v-2417h-618v2417h-897z" />
    <glyph glyph-name="U" unicode="U" horiz-adv-x="2814" 
d="M193 967v1982h618v-1991q0 -512 619 -512q258 0 417 132q156 127 156 380v1991h618v-1982q0 -926 -1007 -1028q-82 -9 -111 -9h-172q-524 0 -823 250q-315 271 -315 787z" />
    <glyph glyph-name="V" unicode="V" horiz-adv-x="2437" 
d="M-102 2949h663l574 -1884q49 -156 69 -315l17 -119l12 127q0 12 29 127l45 180l569 1884h664l-1029 -2949h-585z" />
    <glyph glyph-name="W" unicode="W" horiz-adv-x="3863" 
d="M-16 2949h659l422 -1782q57 -241 57 -422l4 127l45 312l402 1765h721l405 -1806q29 -123 37 -271l8 -127q0 177 58 422l417 1782h660l-811 -2949h-684l-406 1880q-36 164 -41 320l-4 118l-4 -118q-4 -156 -41 -320l-405 -1880h-688z" />
    <glyph glyph-name="X" unicode="X" horiz-adv-x="2671" 
d="M-16 0l1003 1556l-926 1393h721l467 -778q70 -115 86 -238q17 123 86 238l471 778h684l-893 -1393l1004 -1556h-729l-569 991q-37 66 -54 180q-12 -98 -49 -172l-4 -12l-49 -82l-520 -905h-729z" />
    <glyph glyph-name="Y" unicode="Y" horiz-adv-x="2421" 
d="M-102 2949h704l565 -1151q41 -82 41 -192q0 77 41 192l8 17l46 94l516 1040h704l-1003 -1819v-1130h-619v1130z" />
    <glyph glyph-name="Z" unicode="Z" horiz-adv-x="2601" 
d="M70 0v471l1724 2003l-65 -20q-107 -33 -173 -33h-1392v528h2339v-500l-1692 -1966q119 37 238 37h1482v-520h-2461z" />
    <glyph glyph-name="bracketleft" unicode="[" horiz-adv-x="967" 
d="M193 -373v3695h847v-410h-303v-2875h303v-410h-847z" />
    <glyph glyph-name="backslash" unicode="\" horiz-adv-x="1270" 
d="M156 2949h442l516 -2949h-442z" />
    <glyph glyph-name="bracketright" unicode="]" horiz-adv-x="967" 
d="M-74 -373v410h303v2875h-303v410h848v-3695h-848z" />
    <glyph glyph-name="asciicircum" unicode="^" horiz-adv-x="2241" 
d="M156 655l966 1725l963 -1725h-504l-459 885l-463 -885h-503z" />
    <glyph glyph-name="underscore" unicode="_" horiz-adv-x="1786" 
d="M156 -147v147h1474v-147h-1474z" />
    <glyph glyph-name="grave" unicode="`" horiz-adv-x="1114" 
d="M0 3006h696l209 -606h-418z" />
    <glyph glyph-name="a" unicode="a" horiz-adv-x="2404" 
d="M1569 1552v66q0 115 -119 180q-102 57 -225 57q-86 0 -172 -24q-217 -62 -242 -270v-66h-549q0 90 8 135q115 656 942 656q406 0 656 -156q299 -184 299 -569v-1041q0 -90 123 -90l41 4v-450l-123 -17q-90 -12 -226 -12q-380 0 -380 266v58q-82 -152 -316 -267
q-151 -73 -340 -73q-352 0 -577 151q-267 176 -267 512q0 332 246 520q180 140 578 209l114 21l82 8l148 20l86 17q86 16 94 20q119 25 119 135zM1610 1106q-99 -66 -246 -98l-115 -25l-53 -8l-106 -21l-78 -20l-70 -16q-254 -62 -254 -263q0 -262 352 -262q90 0 164 13
q29 4 90 28q316 123 316 357v315z" />
    <glyph glyph-name="b" unicode="b" horiz-adv-x="2462" 
d="M193 0v2949h585v-954q197 295 627 295q463 0 725 -373q229 -328 229 -811q0 -422 -196 -733q-221 -353 -611 -422q-90 -17 -168 -17q-196 0 -360 82q-184 90 -254 258l12 -274h-589zM762 1098q0 -267 106 -447q127 -221 377 -221q58 0 115 12q409 86 409 664
q0 700 -491 700q-516 0 -516 -708z" />
    <glyph glyph-name="c" unicode="c" horiz-adv-x="2306" 
d="M2216 1442h-582q0 209 -200 319q-99 54 -217 54q-259 0 -398 -213q-119 -181 -119 -451q0 -524 295 -676q103 -53 213 -53q213 0 348 164q95 114 95 266l585 -25q0 -270 -208 -532q-295 -373 -828 -373q-94 0 -221 21q-434 69 -664 409q-213 312 -213 766q0 451 205 750
q221 323 651 405q152 29 283 29q520 0 803 -381q172 -233 172 -479z" />
    <glyph glyph-name="d" unicode="d" horiz-adv-x="2482" 
d="M1700 1987v962h590v-2949h-582v270q-164 -352 -618 -352q-78 0 -189 21q-385 73 -594 385q-184 282 -201 692l-4 110v50q0 421 250 745q283 365 725 365q90 0 185 -21q303 -65 438 -278zM709 1102q0 -279 106 -463q131 -229 389 -229q500 0 500 741q0 557 -393 635
q-62 12 -107 12q-258 0 -389 -233q-106 -185 -106 -463z" />
    <glyph glyph-name="e" unicode="e" horiz-adv-x="2400" 
d="M2298 926h-1593l4 -66q61 -393 409 -467q58 -12 115 -12q246 0 385 184q45 62 61 123h598q-86 -360 -381 -565q-278 -197 -655 -197q-111 0 -258 25q-418 69 -655 393q-226 307 -226 741q0 537 304 873q303 332 835 332q508 0 791 -344q266 -320 266 -836v-184zM713 1356
h983l-4 65q-13 189 -156 312q-143 118 -336 118q-188 0 -319 -122q-131 -127 -160 -316z" />
    <glyph glyph-name="f" unicode="f" horiz-adv-x="1176" 
d="M0 1798v414h262v90q0 389 225 553q185 139 553 139h41l185 -4v-463h-49q-213 0 -267 -24q-98 -45 -98 -222v-69h410v-414h-414v-1798h-590v1798h-258z" />
    <glyph glyph-name="g" unicode="g" horiz-adv-x="2482" 
d="M1741 1892v320h549v-2056q0 -463 -299 -709q-279 -229 -750 -229h-106q-54 8 -74 8q-361 33 -586 184q-278 184 -278 516h626l13 -37q77 -229 413 -229q410 0 443 397l8 99v245q-98 -192 -406 -274q-90 -25 -204 -25q-439 0 -721 324q-267 303 -267 745q0 140 21 246
q90 471 446 709q242 160 521 160q221 0 393 -95q196 -106 258 -299zM680 1188q0 -242 127 -406q139 -180 373 -180q69 0 135 16q389 95 389 599q0 249 -119 409q-131 180 -373 180q-57 0 -131 -16q-200 -45 -307 -225q-94 -156 -94 -377z" />
    <glyph glyph-name="h" unicode="h" horiz-adv-x="2384" 
d="M193 0v2949h589v-962q201 299 631 299q389 0 590 -246q188 -230 188 -627v-1413h-589v1384q0 369 -336 406h-82q-193 0 -295 -135q-107 -135 -107 -332v-1323h-589z" />
    <glyph glyph-name="i" unicode="i" horiz-adv-x="975" 
d="M193 0v2212h589v-2212h-589zM193 2392v557h589v-557h-589z" />
    <glyph glyph-name="j" unicode="j" horiz-adv-x="1012" 
d="M-131 -770v487h45q172 21 221 54q94 61 94 196v2245h590l-4 -2314q0 -414 -201 -553q-159 -115 -602 -115h-143zM229 2392v557h590v-557h-590z" />
    <glyph glyph-name="k" unicode="k" horiz-adv-x="2241" 
d="M193 0v2949h589l-16 -1585l29 49l106 135l623 664h753l-852 -836l918 -1376h-741l-578 987l-242 -229v-758h-589z" />
    <glyph glyph-name="l" unicode="l" horiz-adv-x="975" 
d="M193 0v2949h589v-2949h-589z" />
    <glyph glyph-name="m" unicode="m" horiz-adv-x="3588" 
d="M193 0v2212h581v-295l37 61q184 308 586 308q192 0 356 -95q164 -98 229 -270l13 -33l45 62q184 250 454 307q136 29 234 29q352 0 524 -275q144 -225 144 -598v-1413h-590v1352q0 405 -320 405q-397 0 -397 -463v-1294h-590v1343q0 418 -323 418q-185 0 -287 -131
q-107 -131 -107 -319v-1311h-589z" />
    <glyph glyph-name="n" unicode="n" horiz-adv-x="2380" 
d="M193 0v2212h577v-275l45 58q221 282 610 282q385 0 582 -258q180 -233 180 -630v-1389h-590v1372q0 180 -94 299t-270 119q-217 0 -332 -139q-119 -140 -119 -361v-1290h-589z" />
    <glyph glyph-name="o" unicode="o" horiz-adv-x="2486" 
d="M102 1106q0 532 312 856q307 324 839 324q525 0 828 -324q303 -328 303 -856q0 -115 -21 -238q-73 -442 -364 -692q-295 -250 -742 -250h-110q-29 4 -115 17q-446 65 -692 393q-238 311 -238 770zM696 1106q0 -614 430 -692q66 -13 127 -13q275 0 418 226
q119 188 119 479q0 295 -123 483q-143 221 -426 221q-278 0 -422 -221q-123 -188 -123 -483z" />
    <glyph glyph-name="p" unicode="p" horiz-adv-x="2486" 
d="M193 -737v2949h573v-291q90 180 283 283q176 94 389 94q458 0 729 -389q217 -312 217 -791q0 -434 -189 -741q-213 -348 -614 -422q-90 -16 -188 -16q-435 0 -611 303v-979h-589zM778 1081q0 -663 512 -663q496 0 496 835q0 242 -115 398q-127 176 -360 176
q-66 0 -156 -25q-377 -102 -377 -721z" />
    <glyph glyph-name="q" unicode="q" horiz-adv-x="2462" 
d="M1720 1892v320h549v-2949h-590v975q-172 -304 -602 -304h-114q-394 86 -582 295t-258 623q-12 78 -17 164l-4 106v66q0 553 390 885q249 213 577 213q221 0 389 -95q189 -106 262 -299zM692 1085l13 -151q16 -213 143 -361q135 -159 340 -159q57 0 115 12q401 86 401 704
q0 279 -98 459q-127 234 -381 234q-148 0 -267 -74q-233 -143 -258 -537z" />
    <glyph glyph-name="r" unicode="r" horiz-adv-x="1409" 
d="M193 0v2212h569v-365q65 312 377 410q78 24 164 24q69 0 151 -20v-541l-86 17q-20 4 -65 4q-246 0 -390 -189q-131 -172 -131 -426v-1126h-589z" />
    <glyph glyph-name="s" unicode="s" horiz-adv-x="2183" 
d="M70 766h569v-74q33 -262 365 -315q53 -8 90 -8q12 0 86 8q254 29 290 176q9 33 9 61q0 82 -99 148q-45 29 -151 57l-414 107q-668 172 -668 614q0 94 33 225q70 279 348 414q226 111 545 111q397 0 660 -193q295 -213 295 -594h-558v58q0 245 -315 290q-57 9 -111 9
q-122 0 -217 -50q-114 -57 -114 -172q0 -86 82 -135l86 -37l114 -28l467 -127l144 -45q475 -148 475 -570q0 -184 -86 -348q-226 -426 -914 -426q-389 0 -647 160q-299 184 -356 545z" />
    <glyph glyph-name="t" unicode="t" horiz-adv-x="1266" 
d="M0 1798v414h254v500h590v-500h401v-414h-401v-1073q0 -164 12 -209q33 -123 143 -123q148 0 250 70v-451q-209 -69 -426 -69q-569 0 -569 651v1204h-254z" />
    <glyph glyph-name="u" unicode="u" horiz-adv-x="2363" 
d="M193 856v1356h589v-1348q0 -438 377 -438q422 0 422 475v1311h590v-2212h-561v299q-103 -254 -439 -336q-102 -24 -200 -24q-53 0 -135 12q-643 94 -643 905z" />
    <glyph glyph-name="v" unicode="v" horiz-adv-x="2003" 
d="M-74 2212h631l356 -1184q50 -168 74 -340l17 -123q0 127 32 254l54 209l356 1184h631l-779 -2212h-593z" />
    <glyph glyph-name="w" unicode="w" horiz-adv-x="3387" 
d="M-16 2212h634l324 -1401q21 -90 21 -246q0 74 28 230l33 176l299 1241h741l299 -1241q37 -160 54 -295l12 -111v103q0 77 16 143l9 33l319 1368h631l-639 -2212h-680l-328 1311l-49 274l-12 90l-13 -86l-20 -119l-33 -159l-323 -1311h-684z" />
    <glyph glyph-name="x" unicode="x" horiz-adv-x="2200" 
d="M-74 0l799 1163l-680 1049h664l356 -598q29 -49 33 -103l41 115l45 74l307 512h663l-679 -1049l798 -1163h-721l-364 557q-66 102 -90 209q-17 -102 -86 -209l-365 -557h-721z" />
    <glyph glyph-name="y" unicode="y" horiz-adv-x="2028" 
d="M-74 2212h631l401 -1221q21 -61 58 -270l8 -94l29 217l41 164l385 1204h622l-848 -2441q-123 -349 -319 -451q-152 -78 -561 -86l-221 -4v483l77 -4q50 -4 95 -4q106 0 168 16q143 37 184 164l8 54l16 196z" />
    <glyph glyph-name="z" unicode="z" horiz-adv-x="2073" 
d="M16 0v426l1110 1237l119 106l-69 -12l-185 -16h-856v471h1827v-426l-1204 -1344l61 13l90 12l111 8h1008v-475h-2012z" />
    <glyph glyph-name="braceleft" unicode="{" horiz-adv-x="1389" 
d="M156 1475q49 0 98 20q168 70 168 274v1315q0 348 364 348h447v-266h-53q-136 0 -185 -45t-49 -176v-1114q0 -143 -90 -238q-94 -98 -238 -118q164 -13 267 -160q61 -90 61 -197v-1114q0 -127 53 -172q50 -49 181 -49h53v-266h-447q-364 0 -364 348v1315q0 123 -74 209
t-192 86z" />
    <glyph glyph-name="bar" unicode="|" horiz-adv-x="754" 
d="M156 0v2949h442v-2949h-442z" />
    <glyph glyph-name="braceright" unicode="}" horiz-adv-x="1389" 
d="M156 -483v266h49q135 0 184 45t49 176v1114q0 312 328 357q-139 20 -234 118q-94 99 -94 238v1114q0 127 -49 176q-53 45 -184 45h-49v266h442q369 0 369 -348v-1315q0 -127 73 -208q70 -86 193 -86q-53 0 -103 -21q-163 -70 -163 -274v-1315q0 -348 -369 -348h-442z" />
    <glyph glyph-name="asciitilde" unicode="~" horiz-adv-x="2011" 
d="M156 1135l4 94q24 586 467 586q118 0 254 -54l364 -143l74 -21q45 -12 65 -12q91 0 119 115l21 78l4 41h327v-95q0 -233 -118 -397q-135 -188 -357 -188q-114 0 -250 53l-331 131l-103 33q-37 12 -69 12q-78 0 -119 -115l-16 -77l-5 -41h-331z" />
    <glyph glyph-name="nonbreakingspace" unicode="&#xa0;" horiz-adv-x="2048" 
 />
    <glyph glyph-name="exclamdown" unicode="&#xa1;" horiz-adv-x="983" 
d="M197 2347v602h594v-602h-594zM193 0v991l131 1151h340l127 -1151v-991h-598z" />
    <glyph glyph-name="cent" unicode="&#xa2;" horiz-adv-x="2306" 
d="M995 2286v221h406v-209l131 -29q299 -65 491 -295q193 -229 193 -532h-578q-8 57 -20 86q-66 213 -217 250v-1303l37 12q159 74 192 271q17 37 17 102l585 -20q0 -312 -192 -541q-193 -233 -500 -319q-102 -29 -139 -29v-238h-410v230l-119 24q-376 78 -585 430
q-185 308 -185 721q0 422 181 721q204 340 594 422zM991 1769l-24 -8l-21 -8q-241 -98 -241 -610q0 -602 286 -672v1298z" />
    <glyph glyph-name="sterling" unicode="&#xa3;" horiz-adv-x="2486" 
d="M102 319l103 78q397 303 397 619q0 98 -33 213q-20 65 -41 106h-368v283h262l-25 37l-24 41l-62 106q-106 185 -106 414q0 250 151 446q148 197 385 291q209 82 525 82q430 0 704 -221q291 -238 303 -660l4 -131l-544 -28v73q0 230 -123 361t-348 131h-50q-32 -8 -49 -8
q-151 -21 -254 -111q-102 -90 -102 -237q0 -90 78 -234q73 -106 184 -348h545v-283h-479q36 -98 36 -204q0 -226 -167 -426q-82 -99 -189 -160l78 24q102 33 205 33q90 0 180 -28l164 -54q200 -65 307 -65q152 0 315 123l66 49l254 -459l-107 -70q-299 -196 -565 -196
q-242 0 -688 192q-123 54 -238 54q-237 0 -438 -218z" />
    <glyph glyph-name="currency" unicode="&#xa4;" horiz-adv-x="1872" 
d="M156 864l237 234q-119 176 -119 385q0 205 119 385l-233 225q65 90 151 164l242 -242q168 127 393 127q205 0 377 -123l238 242q102 -70 155 -172l-229 -221q123 -168 123 -381q0 -217 -131 -397l237 -234l-33 -41l-36 -37l-91 -82l-233 238q-176 -131 -385 -131
q-205 0 -381 131l-250 -238l-37 41l-37 37l-40 45zM500 1475q0 -185 131 -312q127 -131 311 -131q180 0 311 131t131 312q0 180 -131 311t-311 131t-311 -131t-131 -311z" />
    <glyph glyph-name="yen" unicode="&#xa5;" horiz-adv-x="2421" 
d="M-102 2949h704l565 -1151q41 -82 41 -192q0 77 41 192l8 17l46 94l516 1040h704l-598 -1118h483l-4 -352h-688l-127 -254h815v-353h-872l-12 -872h-619l8 872h-868l4 353h815l-135 250h-680v356h483z" />
    <glyph glyph-name="section" unicode="&#xa7;" horiz-adv-x="2523" 
d="M528 1864l-45 41q-159 143 -159 389q0 372 372 585q238 136 480 136q991 0 1130 -697l21 -102h-549l-9 57q-49 332 -450 332q-152 0 -262 -61q-135 -74 -135 -217q0 -168 200 -267l54 -20l761 -324q488 -209 488 -704q0 -303 -316 -566l-65 -45q184 -143 184 -409
q0 -369 -332 -598q-245 -172 -659 -172q-422 0 -709 217q-319 237 -319 643l549 -12l8 -78q33 -299 385 -352q20 0 57 -5q37 -4 58 -4q372 0 372 308v16q-8 164 -221 258l-786 344q-541 238 -541 631q0 418 369 635zM864 1589l-24 -16l-37 -29q-135 -106 -135 -250
q0 -184 213 -274l807 -340l73 53l49 49q66 66 66 181q0 196 -193 278z" />
    <glyph glyph-name="dieresis" unicode="&#xa8;" horiz-adv-x="1315" 
d="M-90 2449v557h561v-557h-561zM844 2449v557h561v-557h-561z" />
    <glyph glyph-name="copyright" unicode="&#xa9;" horiz-adv-x="3531" 
d="M238 1479q0 639 446 1081t1081 442q643 0 1086 -438q442 -442 442 -1085q0 -652 -438 -1090q-442 -442 -1090 -442q-647 0 -1085 442q-442 438 -442 1090zM479 1479q0 -398 217 -729.5t582 -479.5q242 -98 487 -98q549 0 918 377t369 926q0 544 -369 925
q-373 381 -918 381q-540 0 -913 -381t-373 -921zM2449 2204l-151 -217q-197 159 -451 159t-434 -155q-184 -160 -221 -410q-12 -82 -12 -127q0 -287 188 -479q188 -197 475 -197q197 0 369 103l82 65l151 -221q-266 -217 -598 -217q-409 0 -688 262q-282 262 -282 672
q0 536 409 815q242 164 541 164q356 0 622 -217z" />
    <glyph glyph-name="ordfeminine" unicode="&#xaa;" horiz-adv-x="1831" 
d="M197 1352h1478v-316h-1478v316zM1327 2699v250h344l4 -1401h-352v267l-12 -29q-58 -131 -193 -201q-139 -69 -295 -69q-291 0 -479 213q-188 208 -188 503v107q8 24 16 69q82 390 397 529q131 57 262 57q316 0 459 -229l21 -33zM512 2253l8 -86q29 -283 328 -340
q20 -4 82 -4q53 0 78 8q262 53 315 336q8 28 8 86q0 61 -8 90q-53 278 -311 340q-33 8 -90 8q-152 0 -271 -98q-119 -103 -131 -254z" />
    <glyph glyph-name="guillemotleft" unicode="&#xab;" horiz-adv-x="2171" 
d="M74 889v414l803 946l352 -316l-701 -835l701 -836l-352 -319zM942 889v414l803 946l352 -316l-700 -835l700 -836l-352 -319z" />
    <glyph glyph-name="logicalnot" unicode="&#xac;" 
d="M156 1475v442h2162v-1032h-344v590h-1818z" />
    <glyph glyph-name="registered" unicode="&#xae;" horiz-adv-x="3531" 
d="M238 1479q0 639 446 1081t1081 442q643 0 1086 -438q442 -442 442 -1085q0 -652 -438 -1090q-442 -442 -1090 -442q-647 0 -1085 442q-442 438 -442 1090zM479 1479q0 -398 217 -729.5t582 -479.5q242 -98 487 -98q549 0 918 377t369 926q0 544 -369 925
q-373 381 -918 381q-540 0 -913 -381t-373 -921zM1253 573v1840h496q610 0 610 -529q0 -188 -102 -319q-107 -131 -291 -164l-53 -4l549 -824h-348l-566 877v-877h-295zM1548 1561h152q356 0 356 299q0 311 -340 311h-168v-610z" />
    <glyph glyph-name="macron" unicode="&#xaf;" horiz-adv-x="1262" 
d="M0 2454v380h1262v-380h-1262z" />
    <glyph glyph-name="degree" unicode="&#xb0;" horiz-adv-x="1450" 
d="M156 2437q0 238 168 406q163 163 401 163q242 0 410 -163q163 -164 163 -406q0 -237 -168 -401q-167 -168 -405 -168t-401 168q-168 164 -168 401zM348 2437q0 -156 110.5 -266.5t266.5 -110.5t266 111q111 110 111 266t-111 266q-110 111 -266 111t-266 -111
q-111 -110 -111 -266z" />
    <glyph glyph-name="acute" unicode="&#xb4;" horiz-adv-x="995" 
d="M213 2392l209 606h696l-487 -606h-418z" />
    <glyph glyph-name="paragraph" unicode="&#xb6;" horiz-adv-x="2482" 
d="M995 2949h1332v-266h-1336q-241 0 -405 -172q-168 -172 -168 -414q0 -237 168 -405t405 -168h266v954h283v-2478h-283v1257h-266q-356 0 -594 246q-241 242 -241 598q0 361 241 606q242 242 598 242zM1798 0v2478h283v-2478h-283z" />
    <glyph glyph-name="periodcentered" unicode="&#xb7;" horiz-adv-x="803" 
d="M102 844v602h598v-602h-598z" />
    <glyph glyph-name="cedilla" unicode="&#xb8;" horiz-adv-x="549" 
d="M90 -602v364h459v-331q0 -340 -385 -340h-45v176h33q176 0 176 106v25h-238z" />
    <glyph glyph-name="ordmasculine" unicode="&#xba;" horiz-adv-x="1831" 
d="M180 1036v316h1475v-316h-1475zM156 2257v78q4 20 16 78q61 274 262 438q197 160 475 160q25 0 78 -9q53 -8 78 -8q270 -53 442 -254q168 -205 168 -479q0 -377 -278 -594q-209 -164 -484 -164q-323 0 -540 217q-217 213 -217 537zM504 2257q0 -53 8 -82
q45 -283 319 -344q37 -8 87 -8q155 0 266 98q110 94 135 250q8 53 8 90q0 340 -328 418q-32 8 -90 8q-86 0 -159 -33q-201 -90 -238 -315q-8 -21 -8 -41v-41z" />
    <glyph glyph-name="guillemotright" unicode="&#xbb;" horiz-adv-x="2171" 
d="M74 262l700 836l-700 835l352 316l803 -946v-414l-803 -946zM942 262l700 836l-700 835l352 316l803 -946v-414l-803 -946z" />
    <glyph glyph-name="questiondown" unicode="&#xbf;" horiz-adv-x="2265" 
d="M823 2351v598h602v-598h-602zM868 2146h533v-86q0 -229 -86 -377q-78 -127 -275 -278l-86 -66l-73 -61q-226 -188 -226 -377q0 -213 148 -332q147 -123 364 -123q103 0 213 37q283 95 324 430v99h545q0 -86 -17 -181q-73 -421 -356 -647q-287 -229 -721 -229
q-373 0 -651 176q-316 197 -381 541q-25 127 -25 221q0 381 320 647l24 21l185 147q241 193 241 406v32z" />
    <glyph glyph-name="Agrave" unicode="&#xc0;" horiz-adv-x="2634" 
d="M-74 0l1045 2949h688l1048 -2949h-688l-196 643h-1012l-197 -643h-688zM958 1139h713l-328 1114q-28 151 -28 205q0 -33 -29 -205l-4 -25l-25 -78zM758 3760h696l209 -606h-418z" />
    <glyph glyph-name="Aacute" unicode="&#xc1;" horiz-adv-x="2634" 
d="M-74 0l1045 2949h688l1048 -2949h-688l-196 643h-1012l-197 -643h-688zM958 1139h713l-328 1114q-28 151 -28 205q0 -33 -29 -205l-4 -25l-25 -78zM1032 3146l209 606h696l-487 -606h-418z" />
    <glyph glyph-name="Acircumflex" unicode="&#xc2;" horiz-adv-x="2634" 
d="M-74 0l1045 2949h688l1048 -2949h-688l-196 643h-1012l-197 -643h-688zM958 1139h713l-328 1114q-28 151 -28 205q0 -33 -29 -205l-4 -25l-25 -78zM578 3150l401 606h672l401 -606h-528l-205 414l-213 -414h-528z" />
    <glyph glyph-name="Atilde" unicode="&#xc3;" horiz-adv-x="2634" 
d="M-74 0l1045 2949h688l1048 -2949h-688l-196 643h-1012l-197 -643h-688zM958 1139h713l-328 1114q-28 151 -28 205q0 -33 -29 -205l-4 -25l-25 -78zM647 3166l8 90q37 410 369 410q41 0 184 -29l21 -4l102 -33l123 -28q70 -17 115 -17q90 0 106 86l4 21h308l-13 -111
q-45 -389 -377 -389h-65q-37 4 -78 16l-82 21l-61 12l-58 17l-77 24q-66 21 -111 21q-94 0 -111 -86l-4 -21h-303z" />
    <glyph glyph-name="Adieresis" unicode="&#xc4;" horiz-adv-x="2634" 
d="M-74 0l1045 2949h688l1048 -2949h-688l-196 643h-1012l-197 -643h-688zM958 1139h713l-328 1114q-28 151 -28 205q0 -33 -29 -205l-4 -25l-25 -78zM295 2740v512h549v-512h-549zM1790 2740v512h549v-512h-549z" />
    <glyph glyph-name="Aring" unicode="&#xc5;" horiz-adv-x="2634" 
d="M-74 0l1057 2953q-78 115 -78 287q21 172 135 283q115 110 287 110q205 0 311 -127q107 -127 107 -328q-12 -131 -86 -221l1048 -2957h-688l-196 643h-1012l-197 -643h-688zM958 1139h713l-328 1114q-28 151 -28 205q0 -33 -29 -205l-4 -25l-25 -78zM1126 3228
q0 -86 54 -144q53 -57 139 -57t143 57q54 54 54 140q0 196 -193 196q-82 0 -139 -53q-58 -57 -58 -139z" />
    <glyph glyph-name="AE" unicode="&#xc6;" horiz-adv-x="3867" 
d="M-74 0l1069 2949h2753v-524h-1532v-631h1348v-496h-1352v-770h1552v-528h-2162v659h-795l-205 -659h-676zM954 1118h652v1340h-213z" />
    <glyph glyph-name="Ccedilla" unicode="&#xc7;" horiz-adv-x="2933" 
d="M2839 2003h-635l-13 61q-41 205 -229 320q-172 106 -389 106q-463 0 -668 -368q-143 -258 -143 -631q0 -889 610 -1024q94 -21 184 -21q271 0 455 152q201 164 201 426h647l-25 -160q-65 -438 -450 -696q-348 -238 -811 -238q-754 0 -1155 533q-316 418 -316 1028
q0 594 328 1012q324 413 905 491q123 17 246 17q438 0 754 -201q340 -213 463 -619q20 -69 41 -188zM1221 -524v368h458v-336q0 -339 -385 -339h-45v180h33q176 0 176 102v25h-237z" />
    <glyph glyph-name="Egrave" unicode="&#xc8;" horiz-adv-x="2499" 
d="M193 0v2949h2179v-528h-1561v-611h1380v-532h-1380v-746h1585v-532h-2203zM692 3760h697l208 -606h-417z" />
    <glyph glyph-name="Eacute" unicode="&#xc9;" horiz-adv-x="2499" 
d="M193 0v2949h2179v-528h-1561v-611h1380v-532h-1380v-746h1585v-532h-2203zM967 3146l209 606h696l-488 -606h-417z" />
    <glyph glyph-name="Ecircumflex" unicode="&#xca;" horiz-adv-x="2499" 
d="M193 0v2949h2179v-528h-1561v-611h1380v-532h-1380v-746h1585v-532h-2203zM512 3150l401 606h672l402 -606h-529l-205 414l-213 -414h-528z" />
    <glyph glyph-name="Edieresis" unicode="&#xcb;" horiz-adv-x="2499" 
d="M193 0v2949h2179v-528h-1561v-611h1380v-532h-1380v-746h1585v-532h-2203zM504 3203v557h561v-557h-561zM1438 3203v557h561v-557h-561z" />
    <glyph glyph-name="Igrave" unicode="&#xcc;" horiz-adv-x="1004" 
d="M193 0v2949h618v-2949h-618zM-57 3760h696l209 -606h-418z" />
    <glyph glyph-name="Iacute" unicode="&#xcd;" horiz-adv-x="1004" 
d="M193 0v2949h618v-2949h-618zM217 3146l209 606h696l-487 -606h-418z" />
    <glyph glyph-name="Icircumflex" unicode="&#xce;" horiz-adv-x="1004" 
d="M193 0v2949h618v-2949h-618zM-238 3150l402 606h672l401 -606h-528l-205 414l-213 -414h-529z" />
    <glyph glyph-name="Idieresis" unicode="&#xcf;" horiz-adv-x="1004" 
d="M193 0v2949h618v-2949h-618zM-246 3203v557h561v-557h-561zM688 3203v557h561v-557h-561z" />
    <glyph glyph-name="Ntilde" unicode="&#xd1;" horiz-adv-x="2888" 
d="M193 0v2949h675l1065 -1745q148 -241 238 -631l-53 345q-41 266 -41 327v1704h618v-2949h-684l-1098 1806q-102 172 -184 463l-45 164l74 -397l53 -254v-1782h-618zM774 3166l8 90q37 410 369 410q41 0 184 -29l21 -4l102 -33l123 -28q70 -17 115 -17q90 0 106 86l4 21
h308l-13 -111q-45 -389 -377 -389h-65q-37 4 -78 16l-82 21l-61 12l-58 17l-77 24q-66 21 -111 21q-94 0 -111 -86l-4 -21h-303z" />
    <glyph glyph-name="Ograve" unicode="&#xd2;" horiz-adv-x="3105" 
d="M102 1475q0 761 463 1183q398 361 987 361q590 0 988 -361q462 -422 462 -1183q0 -762 -462 -1184q-398 -361 -988 -361q-589 0 -987 361q-463 422 -463 1184zM754 1475q0 -107 16 -230q111 -823 782 -823q664 0 783 823q16 115 16 230q0 114 -16 229q-119 823 -783 823
q-671 0 -782 -823q-16 -123 -16 -229zM995 3760h697l209 -606h-418z" />
    <glyph glyph-name="Oacute" unicode="&#xd3;" horiz-adv-x="3105" 
d="M102 1475q0 761 463 1183q398 361 987 361q590 0 988 -361q462 -422 462 -1183q0 -762 -462 -1184q-398 -361 -988 -361q-589 0 -987 361q-463 422 -463 1184zM754 1475q0 -107 16 -230q111 -823 782 -823q664 0 783 823q16 115 16 230q0 114 -16 229q-119 823 -783 823
q-671 0 -782 -823q-16 -123 -16 -229zM1270 3146l209 606h696l-487 -606h-418z" />
    <glyph glyph-name="Ocircumflex" unicode="&#xd4;" horiz-adv-x="3105" 
d="M102 1475q0 761 463 1183q398 361 987 361q590 0 988 -361q462 -422 462 -1183q0 -762 -462 -1184q-398 -361 -988 -361q-589 0 -987 361q-463 422 -463 1184zM754 1475q0 -107 16 -230q111 -823 782 -823q664 0 783 823q16 115 16 230q0 114 -16 229q-119 823 -783 823
q-671 0 -782 -823q-16 -123 -16 -229zM815 3150l402 606h671l402 -606h-529l-205 414l-213 -414h-528z" />
    <glyph glyph-name="Otilde" unicode="&#xd5;" horiz-adv-x="3105" 
d="M102 1475q0 761 463 1183q398 361 987 361q590 0 988 -361q462 -422 462 -1183q0 -762 -462 -1184q-398 -361 -988 -361q-589 0 -987 361q-463 422 -463 1184zM754 1475q0 -107 16 -230q111 -823 782 -823q664 0 783 823q16 115 16 230q0 114 -16 229q-119 823 -783 823
q-671 0 -782 -823q-16 -123 -16 -229zM885 3166l8 90q37 410 369 410q41 0 184 -29l20 -4l103 -33l123 -28q69 -17 114 -17q90 0 107 86l4 21h307l-12 -111q-45 -389 -377 -389h-66q-36 4 -77 16l-82 21l-62 12l-57 17l-78 24q-65 21 -110 21q-95 0 -111 -86l-4 -21h-303z
" />
    <glyph glyph-name="Odieresis" unicode="&#xd6;" horiz-adv-x="3183" 
d="M143 1475q0 684 377 1105q398 439 1073 439q590 0 987 -361q463 -422 463 -1183q0 -762 -463 -1184q-397 -361 -987 -361q-675 0 -1073 439q-377 422 -377 1106zM795 1475q0 -107 16 -230q111 -823 782 -823q664 0 783 823q16 115 16 230q0 114 -16 229
q-119 823 -783 823q-671 0 -782 -823q-16 -123 -16 -229zM102 2720v520h545v-520h-545zM2540 2720v520h540v-520h-540z" />
    <glyph glyph-name="Oslash" unicode="&#xd8;" horiz-adv-x="3117" 
d="M2523 2691l324 352l168 -168l-332 -356q319 -442 319 -1081q0 -721 -462 -1147q-402 -369 -996 -369q-106 0 -258 21q-389 53 -708 323l-299 -323l-173 159l320 344q-328 394 -328 1004q0 180 33 401q78 529 479 852q389 316 930 316q574 0 983 -328zM2130 2269
q-225 254 -590 254q-397 0 -606 -319q-176 -275 -176 -693q0 -122 8 -176l16 -106q17 -119 41 -217l13 -54l16 -53zM975 692q217 -270 581 -270q406 0 615 323q180 275 180 701q0 352 -98 610z" />
    <glyph glyph-name="Ugrave" unicode="&#xd9;" horiz-adv-x="2814" 
d="M193 967v1982h618v-1991q0 -512 619 -512q258 0 417 132q156 127 156 380v1991h618v-1982q0 -926 -1007 -1028q-82 -9 -111 -9h-172q-524 0 -823 250q-315 271 -315 787zM848 3760h696l209 -606h-418z" />
    <glyph glyph-name="Uacute" unicode="&#xda;" horiz-adv-x="2814" 
d="M193 967v1982h618v-1991q0 -512 619 -512q258 0 417 132q156 127 156 380v1991h618v-1982q0 -926 -1007 -1028q-82 -9 -111 -9h-172q-524 0 -823 250q-315 271 -315 787zM1122 3146l209 606h697l-488 -606h-418z" />
    <glyph glyph-name="Ucircumflex" unicode="&#xdb;" horiz-adv-x="2814" 
d="M193 967v1982h618v-1991q0 -512 619 -512q258 0 417 132q156 127 156 380v1991h618v-1982q0 -926 -1007 -1028q-82 -9 -111 -9h-172q-524 0 -823 250q-315 271 -315 787zM668 3150l401 606h672l401 -606h-528l-205 414l-213 -414h-528z" />
    <glyph glyph-name="Udieresis" unicode="&#xdc;" horiz-adv-x="2814" 
d="M193 967v1982l552 4v283l549 -4l-4 -520h-483v-1754q0 -507 602 -507q598 0 598 507l4 1754h-479v524h553l-4 -283l540 -4v-1982q0 -926 -1007 -1028q-82 -9 -111 -9h-172q-524 0 -823 250q-315 271 -315 787z" />
    <glyph glyph-name="germandbls" unicode="&#xdf;" horiz-adv-x="2367" 
d="M193 0v2081q0 430 274 676q262 237 700 237q357 0 623 -168q311 -192 332 -524l4 -66v-49q0 -344 -316 -458l-57 -21q254 -70 393 -291q131 -205 131 -475q0 -115 -24 -233q-74 -353 -344.5 -557.5t-634.5 -204.5q-119 0 -180 12l-140 29v450q78 -28 213 -28
q242 0 394 135q147 135 147 373q0 45 -4 77q-33 271 -225 369q-140 70 -451 70h-65v417h73q230 0 332 41q164 66 197 246q4 21 4 29v28q0 160 -115 259q-119 98 -283 98q-57 0 -94 -8q-172 -37 -237 -144q-54 -90 -54 -278v-2122h-593z" />
    <glyph glyph-name="agrave" unicode="&#xe0;" horiz-adv-x="2404" 
d="M1569 1552v66q0 115 -119 180q-102 57 -225 57q-86 0 -172 -24q-217 -62 -242 -270v-66h-549q0 90 8 135q115 656 942 656q406 0 656 -156q299 -184 299 -569v-1041q0 -90 123 -90l41 4v-450l-123 -17q-90 -12 -226 -12q-380 0 -380 266v58q-82 -152 -316 -267
q-151 -73 -340 -73q-352 0 -577 151q-267 176 -267 512q0 332 246 520q180 140 578 209l114 21l82 8l148 20l86 17q86 16 94 20q119 25 119 135zM1610 1106q-99 -66 -246 -98l-115 -25l-53 -8l-106 -21l-78 -20l-70 -16q-254 -62 -254 -263q0 -262 352 -262q90 0 164 13
q29 4 90 28q316 123 316 357v315zM643 3006h696l209 -606h-418z" />
    <glyph glyph-name="aacute" unicode="&#xe1;" horiz-adv-x="2404" 
d="M1569 1552v66q0 115 -119 180q-102 57 -225 57q-86 0 -172 -24q-217 -62 -242 -270v-66h-549q0 90 8 135q115 656 942 656q406 0 656 -156q299 -184 299 -569v-1041q0 -90 123 -90l41 4v-450l-123 -17q-90 -12 -226 -12q-380 0 -380 266v58q-82 -152 -316 -267
q-151 -73 -340 -73q-352 0 -577 151q-267 176 -267 512q0 332 246 520q180 140 578 209l114 21l82 8l148 20l86 17q86 16 94 20q119 25 119 135zM1610 1106q-99 -66 -246 -98l-115 -25l-53 -8l-106 -21l-78 -20l-70 -16q-254 -62 -254 -263q0 -262 352 -262q90 0 164 13
q29 4 90 28q316 123 316 357v315zM918 2392l208 606h697l-488 -606h-417z" />
    <glyph glyph-name="acircumflex" unicode="&#xe2;" horiz-adv-x="2404" 
d="M1569 1552v66q0 115 -119 180q-102 57 -225 57q-86 0 -172 -24q-217 -62 -242 -270v-66h-549q0 90 8 135q115 656 942 656q406 0 656 -156q299 -184 299 -569v-1041q0 -90 123 -90l41 4v-450l-123 -17q-90 -12 -226 -12q-380 0 -380 266v58q-82 -152 -316 -267
q-151 -73 -340 -73q-352 0 -577 151q-267 176 -267 512q0 332 246 520q180 140 578 209l114 21l82 8l148 20l86 17q86 16 94 20q119 25 119 135zM1610 1106q-99 -66 -246 -98l-115 -25l-53 -8l-106 -21l-78 -20l-70 -16q-254 -62 -254 -263q0 -262 352 -262q90 0 164 13
q29 4 90 28q316 123 316 357v315zM463 2396l401 606h672l401 -606h-528l-205 414l-213 -414h-528z" />
    <glyph glyph-name="atilde" unicode="&#xe3;" horiz-adv-x="2404" 
d="M1569 1552v66q0 115 -119 180q-102 57 -225 57q-86 0 -172 -24q-217 -62 -242 -270v-66h-549q0 90 8 135q115 656 942 656q406 0 656 -156q299 -184 299 -569v-1041q0 -90 123 -90l41 4v-450l-123 -17q-90 -12 -226 -12q-380 0 -380 266v58q-82 -152 -316 -267
q-151 -73 -340 -73q-352 0 -577 151q-267 176 -267 512q0 332 246 520q180 140 578 209l114 21l82 8l148 20l86 17q86 16 94 20q119 25 119 135zM1610 1106q-99 -66 -246 -98l-115 -25l-53 -8l-106 -21l-78 -20l-70 -16q-254 -62 -254 -263q0 -262 352 -262q90 0 164 13
q29 4 90 28q316 123 316 357v315zM532 2413l9 90q37 409 368 409q41 0 185 -28l20 -5l103 -32l122 -29q70 -16 115 -16q90 0 107 86l4 20h307l-12 -110q-45 -390 -377 -390h-66q-37 5 -78 17l-82 20l-61 13l-57 16l-78 25q-66 20 -111 20q-94 0 -110 -86l-4 -20h-304z" />
    <glyph glyph-name="adieresis" unicode="&#xe4;" horiz-adv-x="2404" 
d="M1569 1552v66q0 115 -119 180q-102 57 -225 57q-86 0 -172 -24q-217 -62 -242 -270v-66h-549q0 90 8 135q115 656 942 656q406 0 656 -156q299 -184 299 -569v-1041q0 -90 123 -90l41 4v-450l-123 -17q-90 -12 -230 -12q-274 0 -340 123l-4 12l-20 66l-45 123
q-8 -99 -111 -173q-237 -167 -512 -167q-352 0 -577 151q-267 176 -267 512q0 332 246 520q180 140 578 209l114 21l82 8l148 20l86 17q86 16 94 20q119 25 119 135zM1610 1106q-99 -66 -246 -98l-115 -25l-53 -8l-106 -21l-78 -20l-70 -16q-254 -62 -254 -263
q0 -262 352 -262q90 0 164 13q29 4 90 28q316 123 316 357v315zM426 2396v553h561v-553h-561zM1364 2396v553h565v-553h-565z" />
    <glyph glyph-name="aring" unicode="&#xe5;" horiz-adv-x="2404" 
d="M1569 1552v66q0 115 -119 180q-102 57 -225 57q-86 0 -172 -24q-217 -62 -242 -270v-66h-549q0 90 8 135q115 656 942 656q406 0 656 -156q299 -184 299 -569v-1041q0 -90 123 -90l41 4v-450l-123 -17q-90 -12 -226 -12q-380 0 -380 266v58q-82 -152 -316 -267
q-151 -73 -340 -73q-352 0 -577 151q-267 176 -267 512q0 332 246 520q180 140 578 209l114 21l82 8l148 20l86 17q86 16 94 20q119 25 119 135zM1610 1106q-99 -66 -246 -98l-115 -25l-53 -8l-106 -21l-78 -20l-70 -16q-254 -62 -254 -263q0 -262 352 -262q90 0 164 13
q29 4 90 28q316 123 316 357v315zM799 2855q0 176 131 307q127 127 303 127t307 -127q127 -131 127 -307t-127 -307q-131 -131 -307 -131q-180 0 -307 131q-127 127 -127 307zM1024 2855q0 -86 61 -143q62 -62 148 -62t143 62q54 57 54 143t-58 147q-57 58 -143 58
q-78 0 -144 -58q-61 -69 -61 -147z" />
    <glyph glyph-name="ae" unicode="&#xe6;" horiz-adv-x="3858" 
d="M1565 1548v74q0 115 -131 176q-99 45 -230 45q-176 0 -295 -78q-139 -90 -139 -258h-541q0 394 299 607q263 188 672 188q586 0 770 -279l25 29l20 21q238 237 664 237q499 0 778 -328q250 -290 299 -811q8 -86 8 -122q0 -21 -4 -62t-4 -61h-1581l12 -86
q29 -189 180 -316q152 -127 345 -127q335 0 426 283h602q-115 -352 -381 -553q-271 -201 -639 -201q-90 0 -221 21q-447 69 -627 368q-111 -192 -385 -295q-234 -90 -492 -90q-372 0 -602 148q-270 176 -270 524q0 74 8 127q66 442 668 578l127 28l78 13l61 12l352 61
q148 25 148 127zM1577 1126q-102 -86 -287 -127l-73 -16l-78 -16l-62 -17l-65 -16l-58 -16q-249 -70 -249 -259q0 -270 339 -270h50q32 8 49 8q262 33 377 217q57 91 57 193v319zM2175 1368l983 -12v78q-20 184 -156 307q-139 119 -323 119q-193 0 -328 -111
q-135 -115 -164 -303z" />
    <glyph glyph-name="ccedilla" unicode="&#xe7;" horiz-adv-x="2310" 
d="M2220 1442h-582q0 209 -200 319q-99 54 -217 54q-258 0 -398 -213q-118 -181 -118 -451q0 -524 294 -676q103 -53 213 -53q213 0 349 164q94 114 94 266l586 -25q0 -270 -209 -532q-295 -373 -828 -373q-94 0 -221 21q-434 69 -664 409q-213 312 -213 766q0 451 205 750
q221 323 652 405q151 29 282 29q520 0 803 -381q172 -233 172 -479zM963 -504v365h458v-336q0 -340 -385 -340h-45v180h33q176 0 176 107v24h-237z" />
    <glyph glyph-name="egrave" unicode="&#xe8;" horiz-adv-x="2400" 
d="M2298 926h-1593l4 -66q61 -393 409 -467q58 -12 115 -12q246 0 385 184q45 62 61 123h598q-86 -360 -381 -565q-278 -197 -655 -197q-111 0 -258 25q-418 69 -655 393q-226 307 -226 741q0 537 304 873q303 332 835 332q508 0 791 -344q266 -320 266 -836v-184zM713 1356
h983l-4 65q-13 189 -156 312q-143 118 -336 118q-188 0 -319 -122q-131 -127 -160 -316zM643 3006h696l209 -606h-418z" />
    <glyph glyph-name="eacute" unicode="&#xe9;" horiz-adv-x="2400" 
d="M2298 926h-1593l4 -66q61 -393 409 -467q58 -12 115 -12q246 0 385 184q45 62 61 123h598q-86 -360 -381 -565q-278 -197 -655 -197q-111 0 -258 25q-418 69 -655 393q-226 307 -226 741q0 537 304 873q303 332 835 332q508 0 791 -344q266 -320 266 -836v-184zM713 1356
h983l-4 65q-13 189 -156 312q-143 118 -336 118q-188 0 -319 -122q-131 -127 -160 -316zM918 2392l208 606h697l-488 -606h-417z" />
    <glyph glyph-name="ecircumflex" unicode="&#xea;" horiz-adv-x="2400" 
d="M2298 926h-1593l4 -66q61 -393 409 -467q58 -12 115 -12q246 0 385 184q45 62 61 123h598q-86 -360 -381 -565q-278 -197 -655 -197q-111 0 -258 25q-418 69 -655 393q-226 307 -226 741q0 537 304 873q303 332 835 332q508 0 791 -344q266 -320 266 -836v-184zM713 1356
h983l-4 65q-13 189 -156 312q-143 118 -336 118q-188 0 -319 -122q-131 -127 -160 -316zM463 2396l401 606h672l401 -606h-528l-205 414l-213 -414h-528z" />
    <glyph glyph-name="edieresis" unicode="&#xeb;" horiz-adv-x="2400" 
d="M2298 926h-1593l4 -66q61 -393 409 -467q58 -12 115 -12q246 0 385 184q45 62 61 123h598q-86 -360 -381 -565q-278 -197 -655 -197q-111 0 -258 25q-418 69 -655 393q-226 307 -226 741q0 537 304 873q303 332 835 332q508 0 791 -344q266 -320 266 -836v-184zM713 1356
h983l-4 65q-13 189 -156 312q-143 118 -336 118q-188 0 -319 -122q-131 -127 -160 -316zM455 2449v557h561v-557h-561zM1389 2449v557h561v-557h-561z" />
    <glyph glyph-name="igrave" unicode="&#xec;" horiz-adv-x="975" 
d="M193 0v2212h589v-2212h-589zM-70 3006h697l209 -606h-418z" />
    <glyph glyph-name="iacute" unicode="&#xed;" horiz-adv-x="975" 
d="M193 0v2212h589v-2212h-589zM205 2392l209 606h696l-487 -606h-418z" />
    <glyph glyph-name="icircumflex" unicode="&#xee;" horiz-adv-x="975" 
d="M193 0v2212h589v-2212h-589zM-250 2396l402 606h671l402 -606h-529l-204 414l-213 -414h-529z" />
    <glyph glyph-name="idieresis" unicode="&#xef;" horiz-adv-x="975" 
d="M193 0v2212h589v-2212h-589zM-258 2449v557h561v-557h-561zM676 2449v557h561v-557h-561z" />
    <glyph glyph-name="ntilde" unicode="&#xf1;" horiz-adv-x="2380" 
d="M193 0v2212h577v-275l45 58q221 282 610 282q385 0 582 -258q180 -233 180 -630v-1389h-590v1372q0 180 -94 299t-270 119q-217 0 -332 -139q-119 -140 -119 -361v-1290h-589zM520 2413l8 90q37 409 369 409q41 0 184 -28l21 -5l102 -32l123 -29q70 -16 115 -16
q90 0 106 86l4 20h308l-13 -110q-45 -390 -377 -390h-65q-37 5 -78 17l-82 20l-61 13l-58 16l-77 25q-66 20 -111 20q-94 0 -111 -86l-4 -20h-303z" />
    <glyph glyph-name="ograve" unicode="&#xf2;" horiz-adv-x="2486" 
d="M102 1106q0 532 312 856q307 324 839 324q525 0 828 -324q303 -328 303 -856q0 -115 -21 -238q-73 -442 -364 -692q-295 -250 -742 -250h-110q-29 4 -115 17q-446 65 -692 393q-238 311 -238 770zM696 1106q0 -614 430 -692q66 -13 127 -13q275 0 418 226
q119 188 119 479q0 295 -123 483q-143 221 -426 221q-278 0 -422 -221q-123 -188 -123 -483zM684 3006h696l209 -606h-418z" />
    <glyph glyph-name="oacute" unicode="&#xf3;" horiz-adv-x="2486" 
d="M102 1106q0 532 312 856q307 324 839 324q525 0 828 -324q303 -328 303 -856q0 -115 -21 -238q-73 -442 -364 -692q-295 -250 -742 -250h-110q-29 4 -115 17q-446 65 -692 393q-238 311 -238 770zM696 1106q0 -614 430 -692q66 -13 127 -13q275 0 418 226
q119 188 119 479q0 295 -123 483q-143 221 -426 221q-278 0 -422 -221q-123 -188 -123 -483zM958 2392l209 606h697l-488 -606h-418z" />
    <glyph glyph-name="ocircumflex" unicode="&#xf4;" horiz-adv-x="2486" 
d="M102 1106q0 532 312 856q307 324 839 324q525 0 828 -324q303 -328 303 -856q0 -115 -21 -238q-73 -442 -364 -692q-295 -250 -742 -250h-110q-29 4 -115 17q-446 65 -692 393q-238 311 -238 770zM696 1106q0 -614 430 -692q66 -13 127 -13q275 0 418 226
q119 188 119 479q0 295 -123 483q-143 221 -426 221q-278 0 -422 -221q-123 -188 -123 -483zM504 2396l401 606h672l401 -606h-528l-205 414l-213 -414h-528z" />
    <glyph glyph-name="otilde" unicode="&#xf5;" horiz-adv-x="2486" 
d="M102 1106q0 532 312 856q307 324 839 324q525 0 828 -324q303 -328 303 -856q0 -115 -21 -238q-73 -442 -364 -692q-295 -250 -742 -250h-110q-29 4 -115 17q-446 65 -692 393q-238 311 -238 770zM696 1106q0 -614 430 -692q66 -13 127 -13q275 0 418 226
q119 188 119 479q0 295 -123 483q-143 221 -426 221q-278 0 -422 -221q-123 -188 -123 -483zM573 2413l9 90q36 409 368 409q41 0 185 -28l20 -5l102 -32l123 -29q70 -16 115 -16q90 0 107 86l4 20h307l-12 -110q-46 -390 -377 -390h-66q-37 5 -78 17l-82 20l-61 13l-57 16
l-78 25q-66 20 -111 20q-94 0 -110 -86l-4 -20h-304z" />
    <glyph glyph-name="odieresis" unicode="&#xf6;" horiz-adv-x="2486" 
d="M102 1106q0 528 308 856q303 324 827 324h90q21 0 127 -17q430 -65 684 -385q250 -319 250 -758q0 -114 -25 -258q-77 -446 -376 -692q-299 -250 -754 -250q-520 0 -823 328q-308 328 -308 852zM696 1106q0 -291 123 -479q144 -226 418 -226q283 0 430 222
q123 184 123 483q0 614 -430 692q-70 12 -127 12q-275 0 -418 -225q-119 -188 -119 -479zM500 2396v553h565v-553h-565zM1421 2396v553h566v-553h-566z" />
    <glyph glyph-name="oslash" unicode="&#xf8;" horiz-adv-x="2494" 
d="M1982 2048l259 270l151 -143l-262 -270q250 -365 250 -828q0 -434 -250 -753.5t-672 -384.5q-131 -21 -254 -21q-418 0 -708 266l-238 -245l-147 143l245 254q-254 323 -254 766q0 528 304 856q299 328 823 328h94q12 0 131 -17q295 -41 528 -221zM1614 1663
q-123 156 -340 156h-86q-21 -4 -62 -17q-421 -86 -421 -684v-94q8 -90 53 -262zM864 578q123 -181 361 -181h69q13 4 74 17q197 41 340 291q90 159 90 397q0 82 -12 180l-29 127l-12 33l-16 41z" />
    <glyph glyph-name="ugrave" unicode="&#xf9;" horiz-adv-x="2363" 
d="M193 856v1356h589v-1348q0 -438 377 -438q422 0 422 475v1311h590v-2212h-561v299q-103 -254 -439 -336q-102 -24 -200 -24q-53 0 -135 12q-643 94 -643 905zM623 3006h696l209 -606h-418z" />
    <glyph glyph-name="uacute" unicode="&#xfa;" horiz-adv-x="2363" 
d="M193 856v1356h589v-1348q0 -438 377 -438q422 0 422 475v1311h590v-2212h-561v299q-103 -254 -439 -336q-102 -24 -200 -24q-53 0 -135 12q-643 94 -643 905zM897 2392l209 606h696l-487 -606h-418z" />
    <glyph glyph-name="ucircumflex" unicode="&#xfb;" horiz-adv-x="2363" 
d="M193 856v1356h589v-1348q0 -438 377 -438q422 0 422 475v1311h590v-2212h-561v299q-103 -254 -439 -336q-102 -24 -200 -24q-53 0 -135 12q-643 94 -643 905zM442 2396l402 606h672l401 -606h-528l-205 414l-213 -414h-529z" />
    <glyph glyph-name="udieresis" unicode="&#xfc;" horiz-adv-x="2367" 
d="M193 856v1356h589v-1348q0 -438 377 -438q426 0 426 475v1311h590v-2212h-565v299q-90 -254 -439 -336q-102 -24 -200 -24q-58 0 -135 12q-643 102 -643 905zM422 2392v557h569v-557h-569zM1368 2392v557h569v-557h-569z" />
    <glyph glyph-name="ydieresis" unicode="&#xff;" horiz-adv-x="2028" 
d="M-74 2212h631l401 -1221q21 -61 58 -270l8 -94l29 217l41 164l385 1204h622l-848 -2441q-123 -349 -319 -451q-152 -78 -561 -86l-221 -4v483l77 -4q50 -4 95 -4q106 0 168 16q143 37 184 164l8 54l16 196zM266 2449v557h561v-557h-561zM1200 2449v557h561v-557h-561z
" />
    <glyph glyph-name="dotlessi" unicode="&#x131;" horiz-adv-x="975" 
d="M193 0v2212h589v-2212h-589z" />
    <glyph glyph-name="OE" unicode="&#x152;" horiz-adv-x="4375" 
d="M2122 2777v172h2130v-524h-1532v-639h1343v-492h-1347v-774h1556v-520h-2163v180q-69 -135 -290 -205q-177 -57 -369 -57q-647 0 -1028 496q-320 413 -320 1007q0 541 254 971q283 483 779 590q208 45 385 45q471 0 602 -250zM2109 1991q0 368 -417 479q-95 24 -185 24
q-385 0 -594 -348q-176 -291 -176 -704q0 -402 193 -672q217 -307 602 -307l147 24q189 33 312 172q118 140 118 328v1004z" />
    <glyph glyph-name="oe" unicode="&#x153;" horiz-adv-x="4026" 
d="M2064 1929q156 262 566 344q143 29 262 29q487 0 770 -340q266 -315 266 -811v-139q0 -58 -4 -86h-1569l4 -90q74 -447 512 -447q262 0 406 213l37 74h598q-25 -98 -90 -221q-291 -537 -971 -537q-553 0 -803 365q-274 -361 -840 -361q-491 0 -798 324q-308 319 -308 811
q0 532 299 876q312 365 836 365q639 0 827 -369zM692 1094q0 -287 119 -471q139 -217 410 -217q327 0 467 294q86 181 86 422q0 291 -115 480q-135 225 -410 225q-53 0 -114 -12q-443 -91 -443 -721zM2355 1356h979l-8 69q-21 185 -148 308q-131 118 -315 118
q-106 0 -225 -53q-250 -110 -275 -360z" />
    <glyph glyph-name="Ydieresis" unicode="&#x178;" horiz-adv-x="2421" 
d="M-102 2949h704l565 -1151q41 -82 41 -192q0 77 41 192l8 17l46 94l516 1040h704l-1003 -1819v-1130h-619v1130zM463 3203v557h561v-557h-561zM1397 3203v557h561v-557h-561z" />
    <glyph glyph-name="florin" unicode="&#x192;" horiz-adv-x="1569" 
d="M-246 -770l49 451h152q131 0 184 28q70 37 99 156l8 57l213 1860h-266l45 409l270 -4l12 90q49 377 283 537q205 147 598 147q61 0 123 -4l61 -4l-45 -463l-65 9q-189 0 -258 -33q-103 -49 -123 -209l-9 -66l414 -4l-45 -413l-414 4l-233 -1987q-33 -274 -225 -434
q-148 -123 -484 -131l-172 -4l-127 4z" />
    <glyph glyph-name="circumflex" unicode="&#x2c6;" horiz-adv-x="1507" 
d="M16 2396l402 606h672l401 -606h-528l-205 414l-213 -414h-529z" />
    <glyph glyph-name="caron" unicode="&#x2c7;" horiz-adv-x="1507" 
d="M16 3002h529l213 -413l205 413h528l-401 -606h-672z" />
    <glyph glyph-name="_extra1" unicode="&#x2c9;" horiz-adv-x="1262" 
d="M0 2454v380h1262v-380h-1262z" />
    <glyph glyph-name="breve" unicode="&#x2d8;" horiz-adv-x="1372" 
d="M-12 3019h344q24 -226 286 -266h119q267 36 287 266h348q-33 -266 -221 -447q-193 -180 -455 -180q-164 0 -323 82q-344 176 -385 545z" />
    <glyph glyph-name="ring" unicode="&#x2da;" horiz-adv-x="1044" 
d="M102 2826q0 176 131 307q127 127 304 127q176 0 307 -127q127 -131 127 -307q0 -180 -127 -307q-127 -131 -307 -131q-181 0 -308 131q-127 127 -127 307zM332 2826q0 -86 57 -143q57 -62 143 -62t148 62q57 57 57 143q0 82 -61.5 143.5t-143.5 61.5q-86 0 -143 -57
q-57 -62 -57 -148z" />
    <glyph glyph-name="tilde" unicode="&#x2dc;" horiz-adv-x="1372" 
d="M16 2413l9 90q36 409 368 409q41 0 185 -28l20 -5l102 -32l123 -29q70 -16 115 -16q90 0 106 86l5 20h307l-13 -110q-45 -390 -376 -390h-66q-37 5 -78 17l-82 20l-61 13l-57 16l-78 25q-66 20 -111 20q-94 0 -110 -86l-5 -20h-303z" />
    <glyph glyph-name="_extra2" unicode="&#x2010;" horiz-adv-x="1450" 
d="M70 991v479h1310v-479h-1310z" />
    <glyph glyph-name="endash" unicode="&#x2013;" 
d="M139 1110v553h2196v-553h-2196z" />
    <glyph glyph-name="emdash" unicode="&#x2014;" horiz-adv-x="2351" 
d="M102 868v557h2147v-557h-2147z" />
    <glyph glyph-name="quoteleft" unicode="&#x2018;" horiz-adv-x="819" 
d="M102 1720v541l9 127q36 221 172 393q131 168 335 221l99 25v-225l-41 -17q-254 -102 -275 -405l-4 -66h303v-594h-598z" />
    <glyph glyph-name="quoteright" unicode="&#x2019;" horiz-adv-x="819" 
d="M102 1638v234l50 16q249 127 266 393l4 66h-299v602h594v-545q0 -221 -90 -381q-185 -327 -525 -385z" />
    <glyph glyph-name="quotesinglbase" unicode="&#x201a;" horiz-adv-x="823" 
d="M102 -717v234l50 20q249 103 270 402l4 61h-307v598h602v-516q0 -275 -127 -479q-135 -221 -389 -291z" />
    <glyph glyph-name="quotedblleft" unicode="&#x201c;" horiz-adv-x="1581" 
d="M102 1720v541l9 127q36 221 172 393q131 168 335 221l99 25v-225l-41 -17q-254 -102 -275 -405l-4 -66h303v-594h-598zM864 1720v541l8 127q37 213 168 381q144 184 340 233l99 25v-225l-41 -17q-254 -102 -275 -405l-4 -66h303v-594h-598z" />
    <glyph glyph-name="quotedblright" unicode="&#x201d;" horiz-adv-x="1581" 
d="M102 1638v234l50 16q249 127 266 393l4 66h-299v602h594v-545q0 -221 -90 -381q-185 -327 -525 -385zM864 1638v234l49 16q250 127 267 393l4 66h-299v602h594v-545q0 -221 -90 -381q-185 -327 -525 -385z" />
    <glyph glyph-name="quotedblbase" unicode="&#x201e;" horiz-adv-x="1585" 
d="M102 -717v234l50 20q249 103 270 402l4 61h-307v598h602v-516q0 -275 -127 -479q-135 -221 -389 -291zM864 -717v234l49 20q250 103 271 402l4 61h-303v598h598v-516q0 -275 -127 -479q-135 -221 -389 -291z" />
    <glyph glyph-name="dagger" unicode="&#x2020;" horiz-adv-x="2507" 
d="M74 1503v561h884v885h590v-885h885v-561h-885v-2240h-590v2240h-884z" />
    <glyph glyph-name="daggerdbl" unicode="&#x2021;" horiz-adv-x="2507" 
d="M74 1507v561l884 -4v885l590 -4v-885l885 -4v-557l-885 4v-327l885 -5v-557l-885 4v-1355h-590v1355l-884 5v561l884 -4v323z" />
    <glyph glyph-name="bullet" unicode="&#x2022;" horiz-adv-x="1450" 
d="M156 1475q0 237 168 405q163 164 401 164q242 0 410 -164q163 -164 163 -405q0 -242 -163 -406q-168 -164 -410 -164q-238 0 -401 168q-168 164 -168 402z" />
    <glyph glyph-name="ellipsis" unicode="&#x2026;" horiz-adv-x="3006" 
d="M156 295q0 143 102 246q98 98 242 98q143 0 245 -98q99 -103 99 -246t-99 -242q-102 -102 -245 -102q-140 0 -242 102q-102 103 -102 242zM1159 295q0 139 102.5 241.5t241.5 102.5q144 0 246 -98q98 -103 98 -246t-98 -242q-102 -102 -246 -102q-143 0 -241 102
q-103 99 -103 242zM2163 295q0 143 102 246q98 98 242 98q143 0 246 -98q98 -103 98 -246t-98 -242q-103 -102 -246 -102q-148 0 -246 98t-98 246z" />
    <glyph glyph-name="perthousand" unicode="&#x2030;" horiz-adv-x="4166" 
d="M119 2101q0 918 520 918q111 0 242 -45q217 -74 295 -373q45 -172 45 -500q0 -327 -45 -499q-78 -295 -299 -369q-136 -45 -242 -45q-516 0 -516 913zM471 2101l4 -159q4 -123 12 -181q33 -209 185 -209q119 0 172 168q20 66 20 222v319q0 389 -192 389q-127 0 -176 -164
q-17 -53 -21 -225zM778 0l979 2949h344l-975 -2949h-348zM1659 848q0 913 516 913q381 0 504 -299q82 -196 82 -614q0 -324 -45 -500q-78 -299 -295 -373q-135 -45 -246 -45q-516 0 -516 918zM2011 848l4 -160q4 -119 13 -180q16 -102 73 -160q41 -49 111 -49q74 0 106 45
q86 86 86 344v316q0 393 -192 393q-123 0 -172 -164q-21 -70 -25 -225zM2945 848q0 754 324 864q143 49 258 49q520 0 520 -913q0 -918 -520 -918q-111 0 -242 45q-217 74 -295 373q-45 172 -45 500zM3297 848l4 -160q4 -151 9 -180q32 -209 184 -209q123 0 172 168
q20 70 20 221v320q0 389 -192 389q-119 0 -168 -164q-21 -70 -25 -225z" />
    <glyph glyph-name="guilsinglleft" unicode="&#x2039;" horiz-adv-x="1303" 
d="M74 889v414l803 946l352 -316l-701 -835l701 -836l-352 -319z" />
    <glyph glyph-name="guilsinglright" unicode="&#x203a;" horiz-adv-x="1303" 
d="M74 262l700 836l-700 835l352 316l803 -946v-414l-803 -946z" />
    <glyph glyph-name="fraction" unicode="&#x2044;" horiz-adv-x="881" 
d="M-385 0l1286 2949h393l-1282 -2949h-397z" />
    <glyph glyph-name="uni20AC" unicode="&#x20ac;" horiz-adv-x="2933" 
d="M0 766v557l115 -8q-13 147 -13 176v57l-102 13v553l205 -9q164 435 540 676q361 230 836 230q438 0 754 -201q340 -213 463 -619q20 -69 41 -188h-635l-13 61q-41 205 -229 320q-172 106 -389 106q-467 0 -680 -385h1118v-553l-1249 -4v-57q0 -53 12 -176h1237v-557
h-1069q164 -234 430 -291q94 -21 184 -21q271 0 455 152q201 164 201 426h647l-25 -160q-65 -438 -450 -696q-348 -238 -811 -238q-754 0 -1155 533q-107 139 -176 295z" />
    <glyph glyph-name="trademark" unicode="&#x2122;" horiz-adv-x="2929" 
d="M156 2712v237h897v-242l-316 5v-1237h-270v1237h-311zM1004 1475l262 1495h209l340 -832q73 -180 73 -307l8 86q9 78 66 221l340 832h209l262 -1495h-262l-144 917v168l-45 -168l-28 -90l-340 -844h-127l-373 934l-45 168q4 -20 4 -61v-107l-4 -53l-8 -41l-135 -823h-262
z" />
    <glyph glyph-name="periodcentered.0" unicode="&#x2219;" horiz-adv-x="803" 
d="M102 844v602h598v-602h-598z" />
    <glyph glyph-name="fi" unicode="&#xf001;" horiz-adv-x="2470" 
d="M250 1384l393 394l578 -578l598 594l401 -401l-594 -598l578 -578l-394 -393l-581 582l-574 -574l-397 397l573 574z" />
    <glyph glyph-name="fl" unicode="&#xf002;" horiz-adv-x="1761" 
d="M-8 2019v394h106q647 0 713 450l12 86h496v-2949h-594v2019h-733z" />
    <glyph glyph-name="glyph204" horiz-adv-x="1188" 
 />
    <glyph glyph-name="glyph205" horiz-adv-x="1188" 
 />
    <glyph glyph-name="glyph199" horiz-adv-x="1188" 
 />
    <glyph glyph-name="glyph200" horiz-adv-x="1188" 
 />
    </font>
</defs>
</svg>
